<?xml version="1.0" encoding="UTF-8"?><svg id="uuid-91efda1f-0464-4db6-b5e5-ff18a6394fab" xmlns="http://www.w3.org/2000/svg" viewBox="0 0 2030.3 597.6"><defs><style>.uuid-fd97dbe0-afaa-46dd-bcb8-d23e3efcadd0{fill:#fff;}</style></defs><path class="uuid-fd97dbe0-afaa-46dd-bcb8-d23e3efcadd0" d="M253.7,174.6c-2.4.3-4.1,3.2-5,7.4-1.1,5-1.7,10.2-2.7,15.4-2.9,17.5-6,35-8.6,52.5-8.3,54.1-16,134.3,24,179.4,5.2,5.7,11.7,10.5,18.7,14.4,3,1.7,10.4,5.8,9.3,6.8-.2.5-1.1.8-2.7,1-1.2.1-2.7.2-4.5.3-19.8.1-59.7,0-78.8,0-4.8-.2-10.8.9-14.6-1.6-1.7-1.3-2.6-3.6-2.7-7,0-6,2.2-12.7,3.5-18.9,4.6-20.3,9.1-40.5,13.6-60.8,8.8-42.7,19.4-85.2,27.9-128,2.8-13.1,6.2-26.2,8.9-39.3,2.6-11.6,4.7-26.6-8.1-33.9-6.1-3.7-13-4.9-17.9-6.5-.6-.2-.7-.5,0-.6,16.5-1.1,41.8-.2,59.2-.5,7,0,14-.3,20.5,1.9,20.8,7.3,22.3,28.7,25.4,45.8,3.4,18.5,5.8,37.3,9.3,55.7,4.3,24.2,7.6,48.7,12,72.9,3.4,20,7,39.7,14.5,58.9,3.9,9.8,8.5,20,16.4,27.6,8.1,8.2,22,9,28-1.3,3.3-6,3.3-14.1,2.9-21-.6-9-2.3-17.7-3.9-26.6-2.7-15.7-6.1-32-9.7-47.7-5.3-22.9-10.3-46.2-13.9-69.6-2.1-16.7-4.8-33.9-1.3-50.6,2.6-14.2,9.2-28.2,21.9-37.5,18.1-12.5,48.2-16.3,67.2-2.9,18.8,13.9,21,36.8,24.6,57,2.8,15.7,5,32,8,47.8,8.6,52.3,17,104.4,25.1,156.8.8,4.9,1.6,10.2,2.6,15.1.6,3.8,2,9,0,11.9-3.5,4.2-18.6,2.5-25.8,2.9-25.1.6-25.6-1.6-29.1-23.2-10.2-68.9-22.4-137.4-32.9-206.2-2.5-13.8-2.7-29.2-11.4-41.2-9.8-12.7-28.4-9.3-36.3,3.4-15,24.5-6.8,63.1-1.6,89.4,5.9,31.4,14.3,62.8,20.1,94.4,2.1,11.4,4.4,22.8,5.3,34.3.4,8,.5,16.4-2.4,23.9-3.9,10.9-15.8,18.4-28.3,19.8-18.8,2.8-38.4-3.3-51.7-15.5-27.7-25.7-36-68.4-42.2-102.5-5.4-32.3-10.6-64.3-15.1-96.7-2.1-10.4-5.8-55.6-17.9-57h0Z"/><path class="uuid-fd97dbe0-afaa-46dd-bcb8-d23e3efcadd0" d="M1448.4,368c-6.2-31.9-15.2-63.7-21.6-95.5-9.1-45.3-11.6-68.9,1.7-90.5,10.9-17.7,28.6-26.5,40.9-31-4.3.5-8.9.8-13.7,1.1-5.2.2-10.1.3-14.8.2-5.9,5.2-14.8,14.3-21.4,28.2-1.2,2.6-4,9-6,17.9-3.9,16.9-1,34.3,1.3,51.2,3.8,23.6,9.2,47.2,14.9,70.4,3.8,15.9,7.5,32.4,10.4,48.3,1.7,9.1,3.6,17.8,4.2,27,.5,6.9.5,15.2-3.1,21.2-6.4,10.5-21.3,9.6-30.1,1.3-8.5-7.7-13.4-17.9-17.6-27.9-8.1-19.5-11.9-39.4-15.6-59.7-4.7-24.4-8.3-49.2-12.9-73.7-3.8-18.6-6.3-37.6-10-56.3-3.3-17.3-4.9-39-27.2-46.4-7-2.3-14.5-1.9-22.1-2-18.7.4-45.9-.6-63.5.5-.7.2-.6.4,0,.6,5.2,1.6,12.6,2.9,19.2,6.6,13.7,7.4,11.4,22.6,8.6,34.3-3,13.3-6.5,26.6-9.6,39.8-9.2,43.2-20.5,86.2-30,129.5-4.9,20.5-9.7,41-14.6,61.6-1.4,6.2-3.8,13-3.7,19.1,0,3.4,1,5.7,2.9,7.1,4,2.5,10.5,1.4,15.6,1.6,20.4,0,63.3.1,84.6,0,1.9,0,3.6-.1,4.8-.3,1.7-.2,2.7-.5,2.9-1,1.1-1-6.8-5.2-10-6.9-7.5-4-14.4-8.8-20.1-14.6-42.9-45.6-34.6-126.9-25.7-181.6,2.8-17.7,6.1-35.4,9.3-53.1,1-5.2,1.7-10.5,2.9-15.6,1-4.2,2.9-7.2,5.4-7.4h0c13,1.4,17,47.1,19.3,57.6,4.8,32.8,10.4,65.2,16.2,97.8,6.6,34.5,15.5,77.8,45.3,103.7,14.3,12.3,35.3,18.5,55.5,15.7,13.4-1.5,26.3-9.1,30.4-20.1,3.2-7.6,3-16.1,2.6-24.1-.9-11.7-3.4-23.2-5.6-34.7Z"/><path class="uuid-fd97dbe0-afaa-46dd-bcb8-d23e3efcadd0" d="M81.8,361v-118.2c0-54.6-.9-84.9-1.7-89.7h56.2c-.9,4.8-1.7,35.1-1.7,89.7v118.2c0,54.6.8,84.9,1.7,89.7h-56.2c.8-4.8,1.7-35.1,1.7-89.7Z"/><path class="uuid-fd97dbe0-afaa-46dd-bcb8-d23e3efcadd0" d="M583.3,357.3v-116.2c0-53.6-.9-83.4-1.7-88.1,16.6-.9,34.5-1.3,47.7-1.3,108.1,0,157.9,28.1,157.9,86.8s-58.3,94.5-151.5,121.3v5.5c0,48.1,1.3,75.3,2.1,80h-56.2c.8-4.7,1.7-34.5,1.7-88.1ZM733.6,249.3c0-42.6-32.3-72.3-97.9-77.4v167.7c66.4-17.4,97.9-48.1,97.9-90.2Z"/><path class="uuid-fd97dbe0-afaa-46dd-bcb8-d23e3efcadd0" d="M829.6,357.3v-116.2c0-53.6-.9-83.4-1.7-88.1,15.7-.9,40.9-1.3,52.3-1.3,108.9,0,153.2,34.5,153.2,86.4s-45.5,80.9-103.4,94c53.2,1.7,77.5,19.2,92.8,65.1l16.2,48.1h-57.4c0-5.5-2.6-13.6-5.1-21.7l-4.7-16.2c-13.2-42.6-25.1-59.2-71.5-59.2h-17.9v11.9c0,51.1.9,80.4,1.7,85.1h-56.2c.9-4.7,1.7-34.5,1.7-88.1ZM980.2,248c0-39.1-27.2-71.1-98.3-76.2v156.6c66-9.4,98.3-37.4,98.3-80.4Z"/><path class="uuid-fd97dbe0-afaa-46dd-bcb8-d23e3efcadd0" d="M1103.2,357.3v-116.2c0-53.6-.9-83.4-1.7-88.1h56.2c-.9,4.7-1.7,34.5-1.7,88.1v116.2c0,53.6.9,83.4,1.7,88.1h-56.2c.9-4.7,1.7-34.5,1.7-88.1Z"/><path class="uuid-fd97dbe0-afaa-46dd-bcb8-d23e3efcadd0" d="M1501.1,153.1h204.7l8.1,27.2c-29.4-3-57-4.7-83.8-5.5v182.6c0,53.6.9,83.4,1.7,88.1h-56.2c.9-4.7,1.7-34.5,1.7-88.1v-182.6c-27.2.9-54.9,2.6-84.3,5.5l8.1-27.2Z"/><path class="uuid-fd97dbe0-afaa-46dd-bcb8-d23e3efcadd0" d="M1734,378.6l51.1-20.9c11.9,44.3,34.9,71.5,65.5,71.5s43.8-15.7,43.8-41.7-11.9-41.3-52.8-60.9l-34.5-16.6c-43.4-20.9-64.7-49.8-64.7-84.3,0-49.8,44.3-80.9,94.9-80.9s89.4,28.9,112.8,78.3l-52.3,13.6c-13.6-41.3-34.5-69.4-68.5-69.4s-41.3,14.5-41.3,39.6,11.5,40,51.9,60l34.5,17c45.1,22.6,67.2,48.5,67.2,84.3,0,51.9-46,83.8-100,83.8s-91.1-31.5-107.7-73.6Z"/></svg>